<svg width="273" height="90" viewBox="0 0 273 90" fill="none" xmlns="http://www.w3.org/2000/svg">
<path d="M40 18.4558H44.5053V36.0001H44.7306C46.6078 32.3545 49.5926 30.5318 53.685 30.5318C57.2517 30.5318 60.03 31.8799 62.0198 34.5761C64.0472 37.2723 65.0609 41.0507 65.0609 45.9115C65.0609 50.7723 64.0472 54.5507 62.0198 57.2469C60.03 59.9432 57.2517 61.2913 53.685 61.2913C49.5926 61.2913 46.6078 59.4685 44.7306 55.8229H44.5053V60.6077H40V18.4558ZM51.9391 57.2469C54.5673 57.2469 56.5947 56.4495 58.0213 54.8545C59.4856 53.2216 60.2177 51.0761 60.2177 48.4178V43.4052C60.2177 40.7469 59.4856 38.6204 58.0213 37.0254C56.5947 35.3925 54.5673 34.5761 51.9391 34.5761C50.9254 34.5761 49.9681 34.709 49.067 34.9748C48.1659 35.2406 47.3775 35.6394 46.7017 36.171C46.0259 36.6647 45.4815 37.2913 45.0685 38.0507C44.6931 38.7723 44.5053 39.6267 44.5053 40.614V51.209C44.5053 52.1963 44.6931 53.0697 45.0685 53.8292C45.4815 54.5507 46.0259 55.1773 46.7017 55.709C47.3775 56.2026 48.1659 56.5824 49.067 56.8482C49.9681 57.114 50.9254 57.2469 51.9391 57.2469Z" fill="white"/>
<path d="M94.7178 31.2153H99.2232L84.8061 67.0444C84.4682 67.8799 84.0928 68.6014 83.6798 69.209C83.2668 69.8545 82.7787 70.3672 82.2155 70.7469C81.6524 71.1647 80.9766 71.4685 80.1881 71.6583C79.3997 71.8862 78.4611 72.0001 77.3723 72.0001H73.0922V68.1267H79.8502L83.1166 60.0381L71.4027 31.2153H76.0207L80.9202 43.5191L85.2566 54.6837H85.4819L89.8183 43.5191L94.7178 31.2153Z" fill="white"/>
<path d="M126.121 55.8229H125.895C124.018 59.4685 121.033 61.2913 116.941 61.2913C113.374 61.2913 110.577 59.9432 108.55 57.2469C106.56 54.5507 105.565 50.7723 105.565 45.9115C105.565 41.0507 106.56 37.2723 108.55 34.5761C110.577 31.8799 113.374 30.5318 116.941 30.5318C121.033 30.5318 124.018 32.3545 125.895 36.0001H126.121V18.4558H130.626V60.6077H126.121V55.8229ZM118.687 57.2469C119.7 57.2469 120.658 57.114 121.559 56.8482C122.46 56.5824 123.248 56.2026 123.924 55.709C124.6 55.1773 125.126 54.5507 125.501 53.8292C125.914 53.0697 126.121 52.1963 126.121 51.209V40.614C126.121 39.6267 125.914 38.7723 125.501 38.0507C125.126 37.2913 124.6 36.6647 123.924 36.171C123.248 35.6394 122.46 35.2406 121.559 34.9748C120.658 34.709 119.7 34.5761 118.687 34.5761C116.059 34.5761 114.012 35.3925 112.548 37.0254C111.122 38.6204 110.408 40.7469 110.408 43.4052V48.4178C110.408 51.0761 111.122 53.2216 112.548 54.8545C114.012 56.4495 116.059 57.2469 118.687 57.2469Z" fill="white"/>
<path d="M141.924 56.7343H152.398V35.0887H141.924V31.2153H156.904V56.7343H166.703V60.6077H141.924V56.7343Z" fill="white"/>
<path d="M175.072 31.2153H179.577V36.0001H179.803C181.68 32.3545 184.665 30.5318 188.757 30.5318C192.324 30.5318 195.102 31.8799 197.092 34.5761C199.119 37.2723 200.133 41.0507 200.133 45.9115C200.133 50.7723 199.119 54.5507 197.092 57.2469C195.102 59.9432 192.324 61.2913 188.757 61.2913C184.665 61.2913 181.68 59.4685 179.803 55.8229H179.577V72.0001H175.072V31.2153ZM187.011 57.2469C189.639 57.2469 191.667 56.4495 193.093 54.8545C194.558 53.2216 195.29 51.0761 195.29 48.4178V43.4052C195.29 40.7469 194.558 38.6204 193.093 37.0254C191.667 35.3925 189.639 34.5761 187.011 34.5761C185.998 34.5761 185.04 34.709 184.139 34.9748C183.238 35.2406 182.45 35.6394 181.774 36.171C181.098 36.6647 180.554 37.2913 180.141 38.0507C179.765 38.7723 179.577 39.6267 179.577 40.614V51.209C179.577 52.1963 179.765 53.0697 180.141 53.8292C180.554 54.5507 181.098 55.1773 181.774 55.709C182.45 56.2026 183.238 56.5824 184.139 56.8482C185.04 57.114 185.998 57.2469 187.011 57.2469Z" fill="white"/>
<path d="M220.723 61.2913C217.682 61.2913 215.054 60.7786 212.839 59.7533C210.661 58.69 208.803 57.2849 207.263 55.5381L210.304 52.8609C211.694 54.3419 213.214 55.4811 214.866 56.2786C216.518 57.0761 218.508 57.4748 220.836 57.4748C223.088 57.4748 224.928 57.0761 226.355 56.2786C227.819 55.4432 228.551 54.152 228.551 52.4052C228.551 51.6457 228.401 51.0191 228.1 50.5254C227.838 49.9938 227.462 49.5761 226.974 49.2723C226.486 48.9685 225.942 48.7406 225.341 48.5887C224.74 48.3988 224.102 48.2469 223.426 48.133L218.865 47.4495C217.851 47.2976 216.743 47.0887 215.542 46.8229C214.378 46.5571 213.308 46.1394 212.332 45.5697C211.356 44.9621 210.53 44.1647 209.854 43.1773C209.216 42.19 208.896 40.8988 208.896 39.3039C208.896 37.8229 209.178 36.5507 209.741 35.4875C210.342 34.3862 211.168 33.4748 212.219 32.7533C213.27 31.9938 214.509 31.4432 215.936 31.1014C217.363 30.7216 218.921 30.5318 220.61 30.5318C223.238 30.5318 225.51 30.9495 227.425 31.7849C229.377 32.6204 231.048 33.7786 232.437 35.2596L229.508 38.0507C229.17 37.633 228.739 37.2153 228.213 36.7976C227.725 36.3419 227.106 35.9432 226.355 35.6014C225.641 35.2216 224.797 34.9178 223.82 34.69C222.844 34.4621 221.718 34.3482 220.441 34.3482C218.151 34.3482 216.387 34.7469 215.148 35.5444C213.946 36.3419 213.345 37.5001 213.345 39.0191C213.345 39.7786 213.477 40.4242 213.74 40.9558C214.04 41.4495 214.434 41.8482 214.922 42.152C215.41 42.4558 215.955 42.7026 216.556 42.8925C217.194 43.0444 217.832 43.1773 218.47 43.2913L223.032 43.9748C224.083 44.1267 225.191 44.3356 226.355 44.6014C227.519 44.8672 228.589 45.3039 229.565 45.9115C230.541 46.4811 231.348 47.2596 231.986 48.2469C232.662 49.2343 233 50.5254 233 52.1204C233 55.0444 231.874 57.3039 229.621 58.8988C227.406 60.4938 224.44 61.2913 220.723 61.2913Z" fill="white"/>
<path d="M156.488 17.511L162 20L156.488 22.4882L154 28L151.511 22.4882L146 20L151.511 17.511L154 12L156.488 17.511Z" fill="#D3FE50"/>
</svg>
